<?xml version="1.0" encoding="utf-8"?>
<!-- SVG Version: 6.00 -->
<svg version="1.1" id="OAFA_Mark_Dark" xmlns="http://www.w3.org/2000/svg" xmlns:xlink="http://www.w3.org/1999/xlink" x="0px" y="0px" width="768px"
	 height="768px" viewBox="0 0 768 768" enable-background="new 0 0 768 768" xml:space="preserve">
  <title>OAFA (Mark 1.0, Two)</title>

  <style>.oafa-two { fill:#6FCAC7; }</style>

	<path id="oafa-mark" class="oafa-two" d="M682.564,581.129l-144-249.415l-83.139,48l57.34,99.314c-12.691,17.218-29.057,32.158-48.766,43.536
		c-76.525,44.183-174.381,17.963-218.564-58.563l360.268-208c-59.643-103.304-180.414-149.313-290.244-118.718l50.631,87.694
		c27.629-3.097,55.473,1.135,80.738,11.898L130.43,419.549c4.43,31.678,14.893,63.049,31.867,92.452
		C232.99,634.443,389.557,676.396,512,605.703c19.141-11.05,36.309-24.202,51.391-38.991l36.035,62.417L682.564,581.129z"/>
</svg>
